#!OML:ASF H:\GeneralSubjects\Female5\Project 1\Capture day 1\Session 1\Female5.ASF
:FULLY-SPECIFIED
:DEGREES
601
root -7.23065 15.9194 1.27648 180.375 -70.0195 -172.507
lowerback 9.44118 2.73756 1.91723
upperback -9.80374 4.05664 2.14197
thorax -16.3794 1.68735 0.446967
lowerneck -19.5682 3.14434 5.14623
upperneck 27.994 4.03691 -5.41534
head 12.8203 1.41854 -2.33408
rclavicle 1.0635e-014 -8.34896e-015
rhumerus -53.2128 7.23817 -73.6851
rradius 27.4678
rwrist -1.92371
rhand -21.6123 -26.602
rfingers 7.12502
rthumb 4.78312 -416.528
lclavicle 1.0635e-014 -8.34896e-015
lhumerus -44.0232 -2.94974 85.2214
lradius 41.6008
lwrist 1.96259
lhand -26.3657 33.3093
lfingers 7.12502
lthumb 0.19256 423.289
rfemur 12.6399 25.6331 41.1621
rtibia -9.08252
rfoot -33.6094 -32.8144
rtoes 10.6074
lfemur -32.0076 -13.7921 -10.2286
ltibia 19.2901
lfoot -23.4693 -7.17532
ltoes -19.9978
602
root -7.19655 15.9257 1.2618 180.299 -70.0749 -172.395
lowerback 9.29581 2.77472 1.91545
upperback -9.75259 4.10189 2.14594
thorax -16.2208 1.71263 0.448363
lowerneck -19.677 3.0574 5.16326
upperneck 27.8638 3.91156 -5.4372
head 12.7822 1.3655 -2.36264
rclavicle -3.62782e-014 4.33351e-014
rhumerus -53.1537 7.09916 -73.6131
rradius 27.1136
rwrist -1.78797
rhand -21.5031 -27.5158
rfingers 7.12502
rthumb 4.88862 -417.439
lclavicle -3.62782e-014 4.33351e-014
lhumerus -44.3382 -2.96903 85.3937
lradius 41.7156
lwrist 2.1525
lhand -25.9687 33.6532
lfingers 7.12502
lthumb 0.575976 423.632
rfemur 12.2149 24.7068 40.8513
rtibia -9.15285
rfoot -32.2426 -32.4571
rtoes 9.11336
lfemur -32.0175 -12.6475 -11.1738
ltibia 21.0689
lfoot -20.836 -7.25798
ltoes -20.1094
603
root -7.1718 15.9313 1.24595 180.401 -70.1581 -172.423
lowerback 9.06954 2.77786 1.76862
upperback -9.74214 4.07531 2.1851
thorax -16.0743 1.72288 0.590303
lowerneck -19.7235 3.02053 5.04363
upperneck 27.8093 3.84693 -5.26749
head 12.7582 1.34912 -2.2852
rclavicle 6.15239e-014 -3.57812e-015
rhumerus -52.9024 6.93579 -73.4677
rradius 26.6507
rwrist -1.56087
rhand -21.3325 -27.6865
rfingers 7.12502
rthumb 5.05332 -417.606
lclavicle 6.15239e-014 -3.57812e-015
lhumerus -44.6284 -2.80797 85.4317
lradius 41.5892
lwrist 2.20454
lhand -25.9521 33.2367
lfingers 7.12502
lthumb 0.591993 423.216
rfemur 12.1853 24.6635 40.9227
rtibia -9.354
rfoot -32.3416 -32.2819
rtoes 10.0328
lfemur -31.7904 -12.0727 -11.9909
ltibia 22.1016
lfoot -18.5959 -7.01263
ltoes -19.8704
604
root -7.15446 15.9373 1.23128 180.506 -70.2078 -172.503
lowerback 8.87228 2.81144 1.65766
upperback -9.75326 4.09107 2.16547
thorax -15.9658 1.7429 0.634996
lowerneck -19.6968 2.94414 4.88389
upperneck 27.8164 3.69516 -4.95538
head 12.7347 1.30849 -2.16231
rclavicle -1.69961e-014 -8.74653e-015
rhumerus -52.6817 6.78726 -73.4529
rradius 26.2066
rwrist -1.15405
rhand -21.4738 -27.5153
rfingers 7.12502
rthumb 4.91685 -417.438
lclavicle -1.69961e-014 -8.74653e-015
lhumerus -44.8414 -2.62417 85.2973
lradius 41.2151
lwrist 2.02696
lhand -26.0998 32.6897
lfingers 7.12502
lthumb 0.449336 422.669
rfemur 12.2873 24.6323 41.0131
rtibia -9.62064
rfoot -32.7628 -31.9009
rtoes 11.9148
lfemur -31.1212 -12.0859 -12.6342
ltibia 22.351
lfoot -16.8457 -6.73507
ltoes -18.25
605
root -7.13635 15.9404 1.21806 180.471 -70.3111 -172.366
lowerback 8.69111 2.8176 1.6578
upperback -9.80814 4.08445 2.12614
thorax -15.9117 1.73604 0.600188
lowerneck -19.7762 2.89619 4.81773
upperneck 28.0303 3.55768 -4.6768
head 12.822 1.27455 -2.07028
rclavicle -5.96354e-016 -1.11319e-014
rhumerus -52.5265 6.81029 -73.7069
rradius 25.9371
rwrist -0.495498
rhand -21.8632 -27.4124
rfingers 7.12502
rthumb 4.54086 -417.344
lclavicle -5.96354e-016 -1.11319e-014
lhumerus -45.0885 -2.43402 85.0027
lradius 40.8823
lwrist 1.80892
lhand -26.0342 32.8621
lfingers 7.12502
lthumb 0.512757 422.841
rfemur 12.2727 24.5693 41.1051
rtibia -9.87729
rfoot -33.0081 -31.4732
rtoes 13.5134
lfemur -30.2871 -13.5268 -12.4524
ltibia 21.1407
lfoot -16.2158 -6.52021
ltoes -16.8073
606
root -7.12253 15.9413 1.206 180.473 -70.4056 -172.243
lowerback 8.51318 2.82038 1.69459
upperback -9.89815 4.07456 2.05863
thorax -15.8977 1.71966 0.513948
lowerneck -19.8557 2.82996 4.8772
upperneck 28.343 3.4074 -4.59422
head 12.9571 1.21898 -2.08066
rclavicle -1.47101e-014 -1.19271e-014
rhumerus -52.2766 6.77053 -73.9764
rradius 25.8028
rwrist 0.0240911
rhand -22.0641 -27.0791
rfingers 7.12502
rthumb 4.34685 -417.014
lclavicle -1.47101e-014 -1.19271e-014
lhumerus -45.373 -2.17875 84.5559
lradius 40.5272
lwrist 1.55105
lhand -26.029 33.2711
lfingers 7.12502
lthumb 0.51772 423.25
rfemur 12.2363 24.5238 41.1806
rtibia -10.1137
rfoot -32.9943 -31.1958
rtoes 14.6556
lfemur -29.4069 -16.0411 -11.6829
ltibia 18.3261
lfoot -18.5107 -4.31558
ltoes -15.4604
607
root -7.11207 15.9429 1.19326 180.588 -70.4493 -172.298
lowerback 8.3323 2.84073 1.64495
upperback -9.97013 4.07536 1.9892
thorax -15.866 1.71898 0.471394
lowerneck -19.7753 2.72071 4.96356
upperneck 28.4906 3.25122 -4.70842
head 12.9955 1.13992 -2.17107
rclavicle 4.94974e-014 4.53229e-014
rhumerus -51.8797 6.64085 -74.1242
rradius 25.8925
rwrist -0.293335
rhand -22.1058 -26.6829
rfingers 7.12502
rthumb 4.30658 -416.619
lclavicle 4.94974e-014 4.53229e-014
lhumerus -45.589 -1.79697 83.9935
lradius 39.9843
lwrist 1.36453
lhand -26.4516 33.2566
lfingers 7.12502
lthumb 0.109543 423.236
rfemur 12.218 24.5117 41.2113
rtibia -10.2535
rfoot -33.0851 -30.9243
rtoes 16.0219
lfemur -28.646 -18.1235 -11.062
ltibia 16.0571
lfoot -21.2951 -3.02933
ltoes -13.5829
608
root -7.0974 15.9459 1.17883 180.728 -70.5189 -172.367
lowerback 8.19039 2.85907 1.53868
upperback -10.06 4.06682 1.92497
thorax -15.8868 1.71981 0.466333
lowerneck -19.5766 2.64462 5.04185
upperneck 28.5714 3.13094 -4.76299
head 12.9824 1.08594 -2.22942
rclavicle 2.87244e-014 3.61788e-014
rhumerus -51.5793 6.70115 -74.4896
rradius 26.2763
rwrist -0.955513
rhand -22.0776 -26.9807
rfingers 7.12502
rthumb 4.33384 -416.916
lclavicle 2.87244e-014 3.61788e-014
lhumerus -45.8113 -1.41967 83.3612
lradius 39.3997
lwrist 1.23828
lhand -27.0365 32.7979
lfingers 7.12502
lthumb -0.455315 422.777
rfemur 12.1034 24.4878 41.231
rtibia -10.2689
rfoot -33.3806 -30.5662
rtoes 17.4077
lfemur -28.3272 -19.429 -10.6032
ltibia 14.8871
lfoot -23.1581 -2.46678
ltoes -11.0675
609
root -7.08262 15.9488 1.16406 180.659 -70.618 -172.195
lowerback 8.12137 2.87127 1.47807
upperback -10.1717 4.06414 1.90025
thorax -15.9828 1.71926 0.475708
lowerneck -19.3666 2.56818 5.00467
upperneck 28.5974 3.02924 -4.74642
head 12.9416 1.03834 -2.23535
rclavicle -2.76311e-014 -2.62396e-014
rhumerus -51.3731 6.9959 -75.0578
rradius 26.9381
rwrist -1.48503
rhand -21.9454 -27.8972
rfingers 7.12502
rthumb 4.46151 -417.83
lclavicle -2.76311e-014 -2.62396e-014
lhumerus -46.0159 -0.888989 82.6262
lradius 38.7947
lwrist 0.889683
lhand -27.4485 32.4536
lfingers 7.12502
lthumb -0.853304 422.432
rfemur 11.9078 24.4459 41.3068
rtibia -10.1957
rfoot -33.3971 -30.5178
rtoes 17.5035
lfemur -28.2335 -20.2404 -10.169
ltibia 14.2395
lfoot -24.3758 -1.96344
ltoes -9.44928
